# xmcd
#
# Track frame offsets:
#	150
#	14589
#	32570
#	57677
#	82838
#	102002
#	116769
#	129037
#	149515
#	166354
#	185673
#	208968
#	229253
#	247432
#	278552
#	310516
#
# Disc length: 4345 seconds
#
# Revision: 0
# Processed by: cddbd v1.5.2PL0 Copyright (c) Steve Scherf et al.
# Submitted via: EZCDAudioConverter 7.0.6.1
#
DISCID=e510f710
DTITLE=Fairport Convention - Come All Ye 7/7
DYEAR=1900
DGENRE=
TTITLE0=Down In The Flood [Live At The Troubadour, LA, 1974]
TTITLE1=Ballad Of Ned Kelly [Live At The Troubadour, LA, 1974]
TTITLE2=Solo [Live At The Troubadour, LA, 1974]
TTITLE3=It'll Take A Long Time [Live At The Troubadour, LA, 1974]
TTITLE4=She Moves Through The Fair [Live At The Troubadour, LA, 1974]
TTITLE5=The Hens March Through The Midden [Live At The Troubadour, LA, 1974]
TTITLE6=The Four Poster Bed [Live At The Troubadour, LA, 1974]
TTITLE7=The Hexamshire Lass [Live At The Troubadour, LA, 1974]
TTITLE8=Six Days On The Road [Live At The Troubadour, LA, 1974]
TTITLE9=Like An Old Fashioned Waltz [Live At The Troubadour, LA, 1974]
TTITLE10=John The Gun [Live At The Troubadour, LA, 1974]
TTITLE11=Down Where The Drunkards Roll [Live At The Troubadour, LA, 1974]
TTITLE12=Crazy Lady Blues [Live At The Troubadour, LA, 1974]
TTITLE13=Who Knows Where The Time Goes? [Live At The Troubadour, LA, 1974]
TTITLE14=Matty Groves [Live At The Troubadour, LA, 1974]
TTITLE15=That'll Be The Day [Live At The Troubadour, LA, 1974]
EXTD=
EXTT0=
EXTT1=
EXTT2=
EXTT3=
EXTT4=
EXTT5=
EXTT6=
EXTT7=
EXTT8=
EXTT9=
EXTT10=
EXTT11=
EXTT12=
EXTT13=
EXTT14=
EXTT15=
PLAYORDER=
